<svg width="473" height="473" viewBox="0 0 473 473" fill="none" xmlns="http://www.w3.org/2000/svg">
<path d="M52.4841 258.95C52.4841 258.95 54.6816 327.07 111.547 372.474C168.412 417.878 247.21 421.13 311.001 425.443C374.792 429.756 423.789 393.644 431.174 339.056C438.558 284.468 389.814 268.444 363.367 206.305C336.921 144.166 339.273 123.741 283.315 85.5222C227.356 47.3038 139.819 70.7712 93.9227 136.245C48.0275 201.718 52.4841 258.95 52.4841 258.95Z" fill="#FEF9C3"/>
<path opacity="0.7" d="M52.4841 258.95C52.4841 258.95 54.6816 327.07 111.547 372.474C168.412 417.878 247.21 421.13 311.001 425.443C374.792 429.756 423.789 393.644 431.174 339.056C438.558 284.468 389.814 268.444 363.367 206.305C336.921 144.166 339.273 123.741 283.315 85.5222C227.356 47.3038 139.819 70.7712 93.9227 136.245C48.0275 201.718 52.4841 258.95 52.4841 258.95Z" fill="white"/>
<path d="M79.097 169.983V145.607C79.097 128.352 93.4355 114.315 111.059 114.315C128.683 114.315 143.022 128.352 143.022 145.607V169.983H155.765V145.607C155.765 121.474 135.71 101.84 111.059 101.84C86.4086 101.84 66.3543 121.474 66.3543 145.607V169.983H79.097Z" stroke="#1F2937" stroke-width="1.1663" stroke-miterlimit="10" stroke-linecap="round" stroke-linejoin="round"/>
<path d="M159.23 170.159H61.6196V250.904H159.23V170.159Z" stroke="#1F2937" stroke-width="1.1663" stroke-miterlimit="10" stroke-linecap="round" stroke-linejoin="round"/>
<path d="M120.575 203.69C120.575 197.944 115.818 193.287 109.949 193.287C104.08 193.287 99.3224 197.945 99.3224 203.69C99.3224 207.648 101.58 211.089 104.903 212.847L103.118 231.186H116.781L114.996 212.847C118.317 211.088 120.575 207.648 120.575 203.69Z" stroke="#1F2937" stroke-width="1.1663" stroke-miterlimit="10" stroke-linecap="round" stroke-linejoin="round"/>
<path d="M220.075 253.517L195.777 251.918V251.525L192.789 251.721L189.802 251.525V251.918L165.504 253.517L147.578 400.901H165.504L192.191 283.391H193.386L220.075 400.901H238L220.075 253.517Z" fill="#1F2937" stroke="#1F2937" stroke-width="1.1663" stroke-miterlimit="10" stroke-linecap="round" stroke-linejoin="round"/>
<path d="M147.578 400.901L143.196 407.672L129.653 413.647C129.653 413.647 127.263 414.842 127.263 417.631C127.263 420.419 127.263 422.809 127.263 422.809H165.902C165.902 422.809 166.3 418.427 165.902 414.444C165.504 410.461 165.504 400.902 165.504 400.902H147.578V400.901Z" fill="#4B5563" stroke="#1F2937" stroke-width="1.1663" stroke-miterlimit="10" stroke-linecap="round" stroke-linejoin="round"/>
<path d="M127.263 418.427C127.263 420.858 127.263 422.809 127.263 422.809H165.902C165.902 422.809 166.076 420.883 166.078 418.427H127.263Z" fill="#1F2937" stroke="#1F2937" stroke-width="1.1663" stroke-miterlimit="10" stroke-linecap="round" stroke-linejoin="round"/>
<path d="M237.927 400.901L242.308 407.672L255.851 413.647C255.851 413.647 258.241 414.842 258.241 417.631C258.241 420.419 258.241 422.809 258.241 422.809H219.603C219.603 422.809 219.204 418.427 219.603 414.444C220.001 410.461 220.001 400.902 220.001 400.902H237.927V400.901Z" fill="#4B5563" stroke="#1F2937" stroke-width="1.1663" stroke-miterlimit="10" stroke-linecap="round" stroke-linejoin="round"/>
<path d="M258.242 418.427C258.242 420.858 258.242 422.809 258.242 422.809H219.604C219.604 422.809 219.429 420.883 219.428 418.427H258.242Z" fill="#1F2937" stroke="#1F2937" stroke-width="1.1663" stroke-miterlimit="10" stroke-linecap="round" stroke-linejoin="round"/>
<path d="M155.212 184.952C155.212 184.952 126.865 224.836 126.865 227.757C126.865 230.678 131.38 253.251 138.549 255.375C145.719 257.499 149.703 253.782 151.031 246.346C152.359 238.91 147.844 228.288 147.844 228.288L161.122 216.338L155.212 184.952Z" fill="#FDE047" stroke="#1F2937" stroke-width="1.1663" stroke-miterlimit="10" stroke-linecap="round" stroke-linejoin="round"/>
<path d="M149.703 245.285C149.703 245.285 157.935 243.956 160.059 244.488C162.184 245.019 163.777 250.065 163.777 250.065C163.777 250.065 164.574 257.5 163.246 259.093C161.917 260.686 155.544 262.545 152.889 263.077C150.233 263.608 144.657 257.5 142.532 253.782C140.408 250.065 144.126 243.691 149.703 245.285Z" fill="#E5E7EB" stroke="#1F2937" stroke-width="1.1663" stroke-miterlimit="10" stroke-linecap="round" stroke-linejoin="round"/>
<path d="M161.18 183.143L155.212 184.952L164.617 247.714H220.506L229.008 185.314L221.41 182.42L193.376 176.27L161.18 183.143Z" fill="#FDE047" stroke="#1F2937" stroke-width="1.1663" stroke-miterlimit="10" stroke-linecap="round" stroke-linejoin="round"/>
<path d="M223.581 204.124L222.315 213.168L212.548 215.52L202.6 211.54L203.324 203.4L223.581 204.124Z" fill="#1F2937" stroke="#1F2937" stroke-width="1.1663" stroke-miterlimit="10" stroke-linecap="round" stroke-linejoin="round"/>
<path d="M211.463 211.45C211.463 210.501 212.232 209.732 213.181 209.732C214.13 209.732 214.899 210.501 214.899 211.45C214.899 212.399 214.13 213.168 213.181 213.168C212.232 213.168 211.463 212.399 211.463 211.45Z" fill="#4B5563" stroke="#1F2937" stroke-width="1.1663" stroke-miterlimit="10" stroke-linecap="round" stroke-linejoin="round"/>
<path d="M187.406 187.845L192.652 193.995L185.96 236.682L193.014 247.896L201.334 236.139L194.28 194.176L200.248 188.388L193.919 180.249L187.406 187.845Z" fill="#1F2937" stroke="#1F2937" stroke-width="1.1663" stroke-miterlimit="10" stroke-linecap="round" stroke-linejoin="round"/>
<path d="M182.342 177.174L158.287 183.143L159.01 186.037L182.523 179.525L182.342 177.174Z" fill="#1F2937" stroke="#1F2937" stroke-width="1.1663" stroke-miterlimit="10" stroke-linecap="round" stroke-linejoin="round"/>
<path d="M202.057 176.451L226.114 182.42L225.39 185.314L201.876 178.803L202.057 176.451Z" fill="#1F2937" stroke="#1F2937" stroke-width="1.1663" stroke-miterlimit="10" stroke-linecap="round" stroke-linejoin="round"/>
<path d="M226.114 182.42C226.114 182.42 235.213 184.473 240.788 187.659C246.365 190.846 247.693 198.016 244.506 205.982C241.319 213.949 231.494 212.887 226.979 210.762C222.465 208.637 221.137 200.671 221.934 197.219" fill="#FDE047"/>
<path d="M226.114 182.42C226.114 182.42 235.213 184.473 240.788 187.659C246.365 190.846 247.693 198.016 244.506 205.982C241.319 213.949 231.494 212.887 226.979 210.762C222.465 208.637 221.137 200.671 221.934 197.219" stroke="#1F2937" stroke-width="1.1663" stroke-miterlimit="10" stroke-linecap="round" stroke-linejoin="round"/>
<path d="M183.428 174.1L180.714 175.908L181.438 194.176L193.195 185.856L205.494 194.358L206.579 176.27L203.324 173.557L183.428 174.1Z" fill="#FDE047" stroke="#1F2937" stroke-width="1.1663" stroke-miterlimit="10" stroke-linecap="round" stroke-linejoin="round"/>
<path d="M207.188 152.372C207.188 152.372 213.868 150.747 215.132 144.067C216.396 137.388 204.299 129.263 195.995 127.819C187.69 126.374 175.414 135.041 173.428 140.998C171.443 146.955 179.206 152.913 187.51 154.177C195.814 155.441 207.188 152.372 207.188 152.372Z" fill="#1F2937" stroke="#1F2937" stroke-width="1.1663" stroke-miterlimit="10" stroke-linecap="round" stroke-linejoin="round"/>
<path d="M182.274 153.455C182.274 153.455 178.663 147.859 177.761 152.734C176.859 157.608 180.649 159.775 182.274 159.594C183.9 159.413 182.274 153.455 182.274 153.455Z" fill="#E5E7EB" stroke="#1F2937" stroke-width="1.1663" stroke-miterlimit="10" stroke-linecap="round" stroke-linejoin="round"/>
<path d="M205.745 153.455C205.745 153.455 209.356 147.859 210.258 152.734C211.16 157.608 207.37 159.775 205.745 159.594C204.119 159.413 205.745 153.455 205.745 153.455Z" fill="#E5E7EB" stroke="#1F2937" stroke-width="1.1663" stroke-miterlimit="10" stroke-linecap="round" stroke-linejoin="round"/>
<path d="M183.066 164.513V176.451L193.195 185.856L204.59 176.089V164.875L183.066 164.513Z" fill="#E5E7EB" stroke="#1F2937" stroke-width="1.1663" stroke-miterlimit="10" stroke-linecap="round" stroke-linejoin="round"/>
<path d="M181.553 149.845C181.553 149.845 181.011 161.038 181.914 164.648C182.816 168.259 188.774 175.842 193.468 177.467C198.162 179.092 204.661 169.343 206.106 166.093C207.551 162.844 207.008 149.123 207.008 149.123C207.008 149.123 205.023 144.429 201.051 142.984C197.078 141.541 184.802 139.013 181.553 149.845Z" fill="#E5E7EB" stroke="#1F2937" stroke-width="1.1663" stroke-miterlimit="10" stroke-linecap="round" stroke-linejoin="round"/>
<path d="M189.063 155.787C189.063 156.641 188.672 157.331 188.19 157.331C187.707 157.331 187.317 156.64 187.317 155.787C187.317 154.935 187.707 154.243 188.19 154.243C188.672 154.243 189.063 154.934 189.063 155.787Z" fill="#1F2937"/>
<path d="M200.14 155.787C200.14 156.641 199.75 157.331 199.267 157.331C198.786 157.331 198.394 156.64 198.394 155.787C198.394 154.935 198.785 154.243 199.267 154.243C199.75 154.243 200.14 154.934 200.14 155.787Z" fill="#1F2937"/>
<path d="M190.944 160.101C190.131 160.101 189.472 160.629 189.472 161.28C189.472 161.931 190.131 162.458 190.944 162.458C191.355 162.458 191.725 162.324 191.993 162.108C192.459 162.742 193.312 163.173 194.3 163.173C195.249 163.173 196.077 162.777 196.555 162.183C196.811 162.353 197.133 162.458 197.491 162.458C198.304 162.458 198.964 161.931 198.964 161.28C198.964 160.629 198.304 160.101 197.491 160.101" fill="#E5E7EB"/>
<path d="M190.944 160.101C190.131 160.101 189.472 160.629 189.472 161.28C189.472 161.931 190.131 162.458 190.944 162.458C191.355 162.458 191.725 162.324 191.993 162.108C192.459 162.742 193.312 163.173 194.3 163.173C195.249 163.173 196.077 162.777 196.555 162.183C196.811 162.353 197.133 162.458 197.491 162.458C198.304 162.458 198.964 161.931 198.964 161.28C198.964 160.629 198.304 160.101 197.491 160.101" stroke="#1F2937" stroke-width="1.1663" stroke-miterlimit="10" stroke-linecap="round" stroke-linejoin="round"/>
<path d="M192.382 167.511H196.155" stroke="#1F2937" stroke-width="1.1663" stroke-miterlimit="10" stroke-linecap="round" stroke-linejoin="round"/>
<path d="M181.14 152.564C181.14 152.564 181.274 156.189 182.482 155.25C183.691 154.31 184.094 148.133 183.02 147.328C181.946 146.522 181.14 150.685 181.14 152.564Z" fill="#1F2937" stroke="#1F2937" stroke-width="1.1663" stroke-miterlimit="10" stroke-linecap="round" stroke-linejoin="round"/>
<path d="M204.444 152.564C204.444 152.564 204.578 156.189 205.786 155.25C206.994 154.31 207.397 148.133 206.324 147.328C205.25 146.522 204.444 150.685 204.444 152.564Z" fill="#1F2937" stroke="#1F2937" stroke-width="1.1663" stroke-miterlimit="10" stroke-linecap="round" stroke-linejoin="round"/>
<path d="M181.14 149.611C181.14 149.611 181.548 149.937 181.54 150.1C183.288 151.048 187.31 152.789 193.817 153.141C199.404 153.443 204.19 151.457 207.033 149.899C207.018 149.412 207.008 149.126 207.008 149.124C206.843 144.89 203.701 142.076 199.81 140.993C196.092 139.957 191.821 140.133 188.231 141.57C186.373 142.313 184.683 143.435 183.442 145.021C183.029 145.547 180.481 149.082 181.14 149.611Z" fill="#4B5563" stroke="#1F2937" stroke-width="1.1663" stroke-miterlimit="10" stroke-linecap="round" stroke-linejoin="round"/>
<path d="M181.553 149.845C181.553 149.845 186.066 151.108 193.829 150.747C201.592 150.386 206.996 149.845 206.996 149.845C206.996 149.845 201.702 155.22 193.939 155.581C185.548 155.971 181.553 149.845 181.553 149.845Z" fill="#4B5563" stroke="#1F2937" stroke-width="1.1663" stroke-miterlimit="10" stroke-linecap="round" stroke-linejoin="round"/>
<path d="M161.723 204.124L162.989 213.168L172.757 215.52L182.704 211.54L181.981 203.4L161.723 204.124Z" fill="#1F2937" stroke="#1F2937" stroke-width="1.1663" stroke-miterlimit="10" stroke-linecap="round" stroke-linejoin="round"/>
<path d="M173.842 211.45C173.842 210.501 173.073 209.732 172.124 209.732C171.175 209.732 170.406 210.501 170.406 211.45C170.406 212.399 171.175 213.168 172.124 213.168C173.073 213.168 173.842 212.399 173.842 211.45Z" fill="#4B5563" stroke="#1F2937" stroke-width="1.1663" stroke-miterlimit="10" stroke-linecap="round" stroke-linejoin="round"/>
<path d="M221.137 247.143H163.777V256.172H221.137V247.143Z" fill="#4B5563" stroke="#1F2937" stroke-width="1.1663" stroke-miterlimit="10" stroke-linecap="round" stroke-linejoin="round"/>
<path d="M174.798 258.827H162.317C160.923 258.827 159.794 257.698 159.794 256.305V250.196C159.794 248.803 160.923 247.673 162.317 247.673H174.798C176.192 247.673 177.321 248.803 177.321 250.196V256.305C177.32 257.698 176.191 258.827 174.798 258.827Z" fill="#4B5563" stroke="#1F2937" stroke-width="1.1663" stroke-miterlimit="10" stroke-linecap="round" stroke-linejoin="round"/>
<path d="M220.474 258.827H207.992C206.599 258.827 205.469 257.698 205.469 256.305V250.196C205.469 248.803 206.599 247.673 207.992 247.673H220.474C221.867 247.673 222.997 248.803 222.997 250.196V256.305C222.996 257.698 221.866 258.827 220.474 258.827Z" fill="#4B5563" stroke="#1F2937" stroke-width="1.1663" stroke-miterlimit="10" stroke-linecap="round" stroke-linejoin="round"/>
<path d="M199.628 247.674H187.146V255.64H199.628V247.674Z" fill="white" stroke="#1F2937" stroke-width="1.1663" stroke-miterlimit="10" stroke-linecap="round" stroke-linejoin="round"/>
<path d="M147.844 228.289C147.844 228.289 139.877 227.757 136.956 222.712" stroke="#1F2937" stroke-width="1.1663" stroke-miterlimit="10" stroke-linecap="round" stroke-linejoin="round"/>
<path d="M236.406 204.92C243.666 204.92 249.551 198.737 249.551 191.111C249.551 183.485 243.666 177.302 236.406 177.302C229.147 177.302 223.262 183.485 223.262 191.111C223.262 198.737 229.147 204.92 236.406 204.92Z" fill="#FDE047" stroke="#1F2937" stroke-width="1.1663" stroke-miterlimit="10" stroke-linecap="round" stroke-linejoin="round"/>
<path d="M236.406 193.34C242.091 193.34 246.699 189.211 246.699 184.117C246.699 179.024 242.091 174.895 236.406 174.895C230.722 174.895 226.114 179.024 226.114 184.117C226.114 189.211 230.722 193.34 236.406 193.34Z" fill="#FDE047" stroke="#1F2937" stroke-width="1.1663" stroke-miterlimit="10" stroke-linecap="round" stroke-linejoin="round"/>
<path d="M236.406 186.558C242.091 186.558 246.699 182.429 246.699 177.335C246.699 172.242 242.091 168.113 236.406 168.113C230.722 168.113 226.114 172.242 226.114 177.335C226.114 182.429 230.722 186.558 236.406 186.558Z" fill="#E5E7EB" stroke="#1F2937" stroke-width="1.1663" stroke-miterlimit="10" stroke-linecap="round" stroke-linejoin="round"/>
<path d="M219.871 157.449C219.871 157.449 220.045 171.055 220.743 175.067C221.442 179.079 224.232 184.311 228.069 184.311C231.906 184.311 235.569 182.916 235.569 182.916C235.569 182.916 240.104 185.357 244.465 184.66C248.826 183.962 248.128 177.857 248.128 175.241C248.128 172.624 247.605 152.914 247.605 152.914C247.605 152.914 247.954 150.996 246.21 150.647C244.465 150.298 243.593 150.298 243.593 150.298V146.112C243.593 146.112 242.895 144.716 240.627 144.716C238.36 144.716 238.186 145.239 238.186 145.239V141.402C238.186 141.402 236.3 138.347 233.825 139.833C232.08 140.879 232.08 142.624 232.08 142.624L231.906 146.287C231.906 146.287 227.72 144.716 227.371 147.159C227.022 149.6 226.325 164.602 226.325 164.602C226.325 164.602 225.802 159.892 224.929 157.625C224.057 155.356 219.871 155.356 219.871 157.449Z" fill="#E5E7EB" stroke="#1F2937" stroke-width="1.1663" stroke-miterlimit="10" stroke-linecap="round" stroke-linejoin="round"/>
<path d="M231.907 146.286L232.256 162.334" stroke="#1F2937" stroke-width="1.1663" stroke-miterlimit="10" stroke-linecap="round" stroke-linejoin="round"/>
<path d="M238.187 145.239L238.361 162.508" stroke="#1F2937" stroke-width="1.1663" stroke-miterlimit="10" stroke-linecap="round" stroke-linejoin="round"/>
<path d="M243.594 150.298L243.245 162.334" stroke="#1F2937" stroke-width="1.1663" stroke-miterlimit="10" stroke-linecap="round" stroke-linejoin="round"/>
<path d="M229.64 162.159L245.513 162.857" stroke="#1F2937" stroke-width="1.1663" stroke-miterlimit="10" stroke-linecap="round" stroke-linejoin="round"/>
<path d="M226.325 164.601C226.325 164.601 226.309 166.919 228.031 167.995C229.755 169.072 233.632 171.872 234.062 176.396" stroke="#1F2937" stroke-width="1.1663" stroke-miterlimit="10" stroke-linecap="round" stroke-linejoin="round"/>
<path d="M82.18 422.393H68.6928L86.6754 297.031H100.162L82.18 422.393Z" fill="#1F2937" stroke="#1F2937" stroke-width="1.1663" stroke-miterlimit="10"/>
<path d="M109.154 422.393H122.64L104.658 297.031H91.1717L109.154 422.393Z" fill="white" stroke="#1F2937" stroke-width="1.1663" stroke-miterlimit="10"/>
<path d="M273.566 422.393H260.079L278.062 297.031H291.549L273.566 422.393Z" fill="#1F2937" stroke="#1F2937" stroke-width="1.1663" stroke-miterlimit="10"/>
<path d="M300.539 422.393H314.027L296.044 297.031H282.557L300.539 422.393Z" fill="white" stroke="#1F2937" stroke-width="1.1663" stroke-miterlimit="10"/>
<path d="M309.967 277.376H52.7244V302.315H309.967V277.376Z" fill="#FDE047" stroke="#1F2937" stroke-width="1.1663" stroke-miterlimit="10"/>
<path d="M316.237 277.376H58.9944V302.315H316.237V277.376Z" fill="#FDE047" stroke="#1F2937" stroke-width="1.1663" stroke-miterlimit="10"/>
<path d="M63.2051 302.316H85.0407L96.3236 277.376H74.4871L63.2051 302.316Z" fill="#1F2937"/>
<path d="M149.629 277.376H127.793L116.51 302.316H138.346L149.629 277.376Z" fill="#1F2937"/>
<path d="M309.545 277.376H287.71L276.427 302.316H298.262L309.545 277.376Z" fill="#1F2937"/>
<path d="M256.24 277.376H234.404L223.121 302.316H244.957L256.24 277.376Z" fill="#1F2937"/>
<path d="M202.934 277.376H181.098L169.816 302.316H191.652L202.934 277.376Z" fill="#1F2937"/>
<path d="M314.833 288.439H272.26" stroke="#1F2937" stroke-width="1.1663" stroke-miterlimit="10"/>
<path d="M314.085 292.61H307.363" stroke="#1F2937" stroke-width="1.1663" stroke-miterlimit="10"/>
<path d="M57.9037 291.568H100.477" stroke="#1F2937" stroke-width="1.1663" stroke-miterlimit="10"/>
<path d="M58.6511 286.875H112.426" stroke="#1F2937" stroke-width="1.1663" stroke-miterlimit="10"/>
<path d="M386.45 416.92H313.477V422.393H386.45V416.92Z" fill="#1F2937" stroke="#1F2937" stroke-width="1.1663" stroke-miterlimit="10" stroke-linecap="round" stroke-linejoin="round"/>
<path d="M374.136 416.767H325.792L344.743 313.692H355.185L374.136 416.767Z" fill="#FDE047" stroke="#1F2937" stroke-width="1.1663" stroke-miterlimit="10" stroke-linecap="round" stroke-linejoin="round"/>
<path d="M337.699 352.003H362.229L359.881 339.233H340.047L337.699 352.003Z" fill="white" stroke="#1F2937" stroke-width="1.1663" stroke-miterlimit="10" stroke-linecap="round" stroke-linejoin="round"/>
<path d="M366.87 399.567L368.083 406.612" stroke="#1F2937" stroke-width="1.1663" stroke-miterlimit="10" stroke-linecap="round" stroke-linejoin="round"/>
<path d="M353.069 319.387L365.343 390.693" stroke="#1F2937" stroke-width="1.1663" stroke-miterlimit="10" stroke-linecap="round" stroke-linejoin="round"/>
<path d="M425.709 422.393H432.249" stroke="#1F2937" stroke-width="1.1663" stroke-miterlimit="10" stroke-linecap="round" stroke-linejoin="round"/>
<path d="M37.2459 422.393H416.584" stroke="#1F2937" stroke-width="1.1663" stroke-miterlimit="10" stroke-linecap="round" stroke-linejoin="round"/>
</svg>
