<svg width="370" height="370" viewBox="0 0 370 370" fill="none" xmlns="http://www.w3.org/2000/svg">
<path d="M345.822 221.958C336.071 251.512 315.065 283.902 284.152 294.446C237.443 310.382 233.27 348.69 148.496 348.429C135.279 348.39 123.009 347.005 111.69 344.477C105.605 343.118 99.792 341.42 94.2612 339.418C44.0419 321.303 16.5457 278.222 12.6222 232.185C7.45181 171.636 48.6565 141.089 75.5081 123.097C102.36 105.105 132.977 38.2277 216.317 37.8295C229.023 37.774 241.751 39.0195 254.149 41.8714C282.447 48.3686 311.564 64.0329 329.055 87.9024C330.369 89.6954 331.626 91.5343 332.834 93.4102C356.425 130.115 359.118 181.667 345.822 221.958Z" fill="#D8B4FE"/>
<path opacity="0.7" d="M345.822 221.958C336.071 251.512 315.065 283.902 284.152 294.446C237.443 310.382 233.27 348.69 148.496 348.429C135.279 348.39 123.009 347.005 111.69 344.477C105.605 343.118 99.792 341.42 94.2612 339.418C44.0418 321.303 16.5457 278.222 12.6222 232.185C7.45181 171.636 48.6565 141.089 75.5081 123.097C102.36 105.105 132.977 38.2277 216.317 37.8295C229.023 37.774 241.751 39.0195 254.149 41.8714C282.447 48.3686 311.564 64.0329 329.055 87.9024C330.369 89.6954 331.626 91.5343 332.834 93.4102C356.425 130.115 359.118 181.667 345.822 221.958Z" fill="white"/>
<path d="M357.189 335.315H15.4993" stroke="#111827" stroke-miterlimit="10" stroke-linecap="round" stroke-linejoin="round"/>
<path d="M28.2399 288.498C29.8338 289.193 33.7307 289.106 33.7336 289.106C33.7743 289.105 32.896 286.555 32.822 286.401C31.9673 284.612 29.2626 281.658 27.0625 281.956C25.4775 282.17 24.5961 283.756 24.9535 285.249C25.3198 286.772 26.8835 287.904 28.2399 288.498Z" fill="#111827"/>
<path d="M29.5852 299.786C31.2384 300.027 34.7164 299.018 34.9924 298.937C35.5415 300.884 36.263 302.838 37.1022 304.774C37.5802 305.882 38.0967 306.982 38.6288 308.08C38.3113 307.615 38.0242 307.202 37.9783 307.148C36.6804 305.648 33.2926 303.514 31.2495 304.382C29.7769 305.007 29.3462 306.77 30.0847 308.115C30.8395 309.488 32.6474 310.167 34.1126 310.38C35.6 310.597 38.5822 309.797 39.3688 309.575C39.5767 309.993 39.7802 310.414 39.9904 310.832C40.9975 312.837 42.0113 314.834 42.9452 316.823C43.2745 317.524 43.5735 318.226 43.8754 318.927C43.5934 318.514 43.3522 318.17 43.31 318.121C42.0128 316.622 38.6251 314.487 36.5812 315.355C35.1086 315.981 34.6772 317.743 35.4164 319.088C36.172 320.461 37.9791 321.141 39.4443 321.355C40.8636 321.562 43.623 320.848 44.5584 320.588C44.8455 321.316 45.1349 322.044 45.3798 322.762C45.5367 323.256 45.7217 323.721 45.8504 324.226C45.9896 324.723 46.1265 325.215 46.2626 325.704C46.4905 326.652 46.731 327.63 46.9294 328.561C47.0729 329.207 47.1972 329.826 47.3245 330.449C47.0048 329.748 46.3492 328.388 46.2811 328.28C45.2266 326.602 42.2008 323.979 40.0488 324.527C38.4985 324.922 37.8059 326.599 38.3328 328.041C38.8708 329.512 40.5543 330.458 41.9706 330.891C43.5298 331.368 46.9819 330.932 47.4126 330.875C47.6198 331.906 47.8107 332.911 47.9765 333.863C48.0653 334.366 48.1422 334.84 48.2207 335.315H49.5934C49.492 334.766 49.3862 334.206 49.2692 333.621C49.0635 332.573 48.823 331.457 48.5648 330.313C48.8245 330.21 50.2964 329.614 51.601 328.886C52.7376 330.116 55.6495 331.556 56.0262 331.74C55.6303 332.714 55.2351 333.658 54.8481 334.543C54.7319 334.811 54.6194 335.06 54.5055 335.315H55.9514C55.9877 335.227 56.0232 335.145 56.0595 335.054C56.4657 334.066 56.8809 333.002 57.2968 331.906C57.7141 331.994 61.1314 332.688 62.7239 332.328C64.1684 332.002 65.9178 331.184 66.5645 329.757C67.1972 328.359 66.6311 326.634 65.1141 326.125C63.0096 325.418 59.7972 327.809 58.6199 329.404C58.5503 329.498 57.911 330.604 57.5195 331.308C57.6867 330.859 57.854 330.425 58.0212 329.961C58.3572 329.045 58.6658 328.122 59.001 327.13C59.146 326.645 59.2925 326.154 59.4405 325.66C59.5974 325.172 59.7018 324.637 59.8357 324.122C60.1221 322.92 60.3537 321.688 60.5594 320.443C61.3616 320.734 64.2261 321.731 65.7106 321.627C67.1876 321.523 69.0406 320.981 69.896 319.667C70.7337 318.381 70.4347 316.591 69.0132 315.858C67.0396 314.84 63.5017 316.716 62.0971 318.115C62.0098 318.201 61.1137 319.319 60.6342 319.942C60.7518 319.192 60.8732 318.444 60.9679 317.681C61.241 315.48 61.4489 313.243 61.6665 311.012C61.7323 310.329 61.8071 309.649 61.8788 308.968C62.163 309.075 65.5426 310.333 67.2046 310.216C68.6817 310.113 70.5346 309.57 71.3901 308.256C72.2277 306.97 71.9288 305.18 70.5072 304.447C68.5337 303.43 64.9965 305.305 63.5912 306.704C63.4854 306.809 62.1993 308.419 61.8922 308.843C62.0505 307.343 62.2222 305.85 62.4516 304.385C62.7646 302.363 63.1842 300.396 63.7311 298.521C63.8635 298.571 67.3844 299.9 69.0864 299.781C70.5635 299.677 72.4172 299.134 73.2719 297.82C74.1096 296.534 73.8106 294.744 72.3891 294.012C70.4155 292.994 66.8783 294.87 65.473 296.269C65.3628 296.378 63.9797 298.11 63.751 298.442C63.7843 298.33 63.8058 298.212 63.8398 298.101C64.4496 296.107 65.2902 294.251 66.1627 292.552C66.6674 291.564 67.2061 290.648 67.7493 289.768C68.3797 290.083 71.2768 291.49 72.8205 291.552C74.3005 291.611 76.2015 291.275 77.1961 290.064C78.1699 288.877 78.0693 287.065 76.7373 286.181C74.8873 284.953 71.1651 286.429 69.6148 287.665C69.5304 287.732 68.749 288.51 68.1881 289.085C68.4389 288.691 68.6913 288.281 68.9392 287.909C69.8679 286.51 70.8047 285.286 71.6431 284.21C72.1249 283.601 72.5718 283.06 72.9966 282.559C73.7758 282.545 76.9179 282.45 78.2913 281.805C79.6314 281.176 81.1647 280.002 81.4888 278.468C81.8063 276.966 80.882 275.404 79.2918 275.233C77.0844 274.995 74.4611 278.021 73.6545 279.832C73.5849 279.989 72.7761 282.562 72.8168 282.561C72.8168 282.561 72.8545 282.561 72.8641 282.56C72.446 283.034 72.0043 283.548 71.5314 284.119C70.6678 285.18 69.7014 286.386 68.7394 287.77C67.7737 289.151 66.7628 290.677 65.8438 292.382C64.9202 294.089 64.0359 295.933 63.3707 297.95C63.3633 297.973 63.3581 297.997 63.3507 298.02C63.3625 297.37 63.3337 295.55 63.3152 295.411C63.0599 293.445 61.4126 289.795 59.2289 289.392C57.6564 289.101 56.3237 290.333 56.1986 291.863C56.0706 293.426 57.2035 294.989 58.3076 295.976C59.553 297.089 63.0103 298.165 63.2856 298.25C62.6692 300.177 62.1933 302.204 61.8248 304.281C61.6132 305.469 61.4363 306.672 61.275 307.881C61.2669 307.318 61.2558 306.815 61.2461 306.745C60.9916 304.779 59.3436 301.13 57.1599 300.726C55.5866 300.435 54.2546 301.667 54.1296 303.196C54.0015 304.759 55.1345 306.322 56.2386 307.309C57.3589 308.31 60.2886 309.287 61.0663 309.536C61.0093 310 60.9472 310.463 60.8917 310.928C60.6253 313.156 60.3692 315.381 60.051 317.555C59.9393 318.322 59.8009 319.072 59.6655 319.824C59.6574 319.324 59.647 318.903 59.6389 318.839C59.3836 316.872 57.7363 313.223 55.5533 312.82C53.9801 312.53 52.6473 313.761 52.5223 315.292C52.3943 316.853 53.5272 318.418 54.632 319.404C55.7013 320.359 58.3971 321.287 59.3207 321.585C59.1586 322.351 58.998 323.118 58.8064 323.852C58.6643 324.35 58.5622 324.84 58.392 325.333C58.2329 325.823 58.076 326.311 57.9206 326.792C57.5868 327.709 57.2487 328.657 56.9009 329.543C56.6633 330.161 56.4258 330.746 56.189 331.335C56.3089 330.574 56.5124 329.078 56.5153 328.951C56.5457 327.634 56.078 325.493 55.1471 323.988C55.153 323.793 55.1419 323.599 55.1108 323.407C54.8673 321.891 53.4436 320.766 51.8977 321.178C49.7525 321.749 48.3916 325.515 48.2902 327.495C48.2843 327.612 48.3605 328.886 48.4219 329.69C48.3139 329.223 48.2147 328.769 48.0971 328.29C47.8721 327.341 47.619 326.401 47.3519 325.388C47.2054 324.903 47.0574 324.414 46.9079 323.919C46.7703 323.427 46.5616 322.923 46.3892 322.419C45.9644 321.258 45.4782 320.103 44.9624 318.95C45.7935 318.751 48.732 318.002 49.9123 317.097C51.0874 316.195 52.3328 314.72 52.3217 313.153C52.3106 311.618 51.0748 310.29 49.4838 310.463C47.2764 310.702 45.3606 314.219 44.9602 316.161C44.9351 316.282 44.8048 317.707 44.7478 318.492C44.4326 317.801 44.1211 317.11 43.7792 316.422C42.7928 314.435 41.7331 312.455 40.683 310.474C40.3611 309.868 40.0481 309.26 39.7321 308.653C40.0289 308.584 43.5409 307.77 44.8633 306.755C46.0377 305.854 47.2838 304.379 47.2727 302.812C47.2616 301.277 46.0251 299.949 44.4348 300.122C42.2274 300.362 40.3115 303.878 39.9112 305.82C39.8809 305.966 39.6959 308.018 39.6744 308.542C38.9795 307.204 38.2987 305.863 37.6816 304.514C36.8276 302.655 36.0928 300.784 35.5141 298.918C35.6525 298.887 39.3222 298.052 40.6764 297.014C41.8515 296.112 43.0976 294.638 43.0858 293.07C43.0747 291.536 41.8382 290.207 40.2479 290.38C38.0405 290.62 36.1254 294.137 35.7243 296.078C35.6925 296.231 35.4949 298.438 35.4875 298.841C35.4534 298.73 35.4053 298.619 35.3728 298.508C34.7815 296.508 34.4589 294.496 34.2495 292.598C34.1251 291.496 34.0689 290.435 34.0371 289.401C34.7364 289.316 37.9287 288.891 39.2504 288.091C40.5173 287.323 41.9181 285.994 42.0787 284.436C42.2363 282.909 41.1529 281.453 39.5538 281.45C37.333 281.446 35.0435 284.731 34.4315 286.617C34.3982 286.72 34.1755 287.799 34.0245 288.588C34.0171 288.121 34.0008 287.64 34.003 287.193C34.006 285.514 34.1118 283.976 34.2176 282.616C34.2835 281.843 34.359 281.145 34.4359 280.493C35.0783 280.051 37.6461 278.238 38.4356 276.942C39.2067 275.677 39.8372 273.853 39.2615 272.395C38.6976 270.968 37.0652 270.175 35.6451 270.909C33.6723 271.929 33.1535 275.899 33.4799 277.854C33.5087 278.023 34.2532 280.615 34.2872 280.593C34.2872 280.593 34.3183 280.572 34.3257 280.567C34.2384 281.193 34.1533 281.865 34.0741 282.602C33.9387 283.962 33.7988 285.502 33.7596 287.187C33.7159 288.872 33.7152 290.703 33.8891 292.632C34.0608 294.564 34.3397 296.59 34.8977 298.64C34.9036 298.662 34.914 298.686 34.9199 298.709C34.5706 298.16 33.5428 296.659 33.4503 296.552C32.153 295.053 28.7653 292.918 26.7214 293.786C25.2496 294.411 24.8174 296.174 25.5574 297.519C26.313 298.893 28.12 299.572 29.5852 299.786Z" fill="#111827"/>
<path d="M67.6597 289.355C67.6945 289.376 68.3687 286.765 68.3923 286.595C68.6654 284.631 68.0394 280.676 66.0406 279.71C64.6006 279.015 62.9903 279.852 62.4657 281.294C61.9299 282.767 62.6092 284.574 63.4144 285.817C64.3579 287.276 67.6568 289.353 67.6597 289.355Z" fill="#111827"/>
<path d="M133.344 313.704C134.08 314.025 135.879 313.984 135.88 313.984C135.899 313.983 135.493 312.807 135.459 312.735C135.065 311.909 133.816 310.546 132.8 310.683C132.069 310.782 131.662 311.514 131.827 312.203C131.996 312.908 132.718 313.431 133.344 313.704Z" fill="#111827"/>
<path d="M133.965 318.915C134.728 319.026 136.334 318.56 136.461 318.523C136.715 319.421 137.048 320.323 137.435 321.217C137.656 321.728 137.894 322.237 138.139 322.743C137.993 322.528 137.86 322.337 137.839 322.313C137.24 321.621 135.676 320.635 134.733 321.036C134.053 321.325 133.855 322.138 134.196 322.759C134.545 323.393 135.379 323.706 136.055 323.806C136.741 323.905 138.118 323.536 138.481 323.433C138.578 323.626 138.672 323.821 138.768 324.013C139.233 324.939 139.701 325.86 140.132 326.779C140.285 327.102 140.422 327.426 140.561 327.75C140.431 327.56 140.319 327.4 140.3 327.378C139.702 326.686 138.138 325.701 137.194 326.102C136.514 326.39 136.315 327.204 136.657 327.824C137.006 328.459 137.84 328.772 138.516 328.871C139.171 328.966 140.445 328.637 140.877 328.517C141.009 328.853 141.142 329.189 141.256 329.521C141.328 329.748 141.413 329.963 141.473 330.196C141.538 330.426 141.6 330.653 141.663 330.878C141.768 331.316 141.879 331.767 141.971 332.197C142.037 332.495 142.095 332.781 142.153 333.069C142.005 332.745 141.703 332.117 141.671 332.068C141.185 331.293 139.788 330.082 138.795 330.335C138.08 330.518 137.76 331.292 138.003 331.957C138.252 332.637 139.029 333.073 139.682 333.273C140.402 333.493 141.996 333.292 142.195 333.266C142.29 333.741 142.378 334.205 142.455 334.645C142.496 334.877 142.531 335.096 142.568 335.315H143.201C143.154 335.062 143.106 334.804 143.052 334.533C142.957 334.049 142.845 333.534 142.726 333.007C142.846 332.959 143.525 332.684 144.128 332.347C144.652 332.916 145.996 333.58 146.17 333.665C145.987 334.114 145.805 334.55 145.626 334.959C145.572 335.082 145.52 335.198 145.468 335.315H146.135C146.152 335.276 146.168 335.237 146.185 335.196C146.373 334.74 146.564 334.248 146.757 333.742C146.949 333.783 148.527 334.103 149.262 333.937C149.928 333.786 150.736 333.408 151.035 332.75C151.327 332.105 151.065 331.309 150.365 331.074C149.393 330.747 147.91 331.851 147.367 332.587C147.335 332.631 147.04 333.141 146.86 333.465C146.937 333.258 147.014 333.058 147.091 332.844C147.247 332.421 147.389 331.995 147.543 331.537C147.61 331.313 147.678 331.087 147.746 330.858C147.819 330.633 147.867 330.386 147.929 330.149C148.061 329.594 148.168 329.025 148.263 328.45C148.633 328.585 149.955 329.045 150.64 328.997C151.322 328.949 152.177 328.698 152.572 328.092C152.959 327.498 152.821 326.672 152.165 326.333C151.254 325.863 149.621 326.73 148.972 327.375C148.932 327.415 148.519 327.931 148.297 328.219C148.351 327.873 148.407 327.528 148.451 327.175C148.576 326.159 148.673 325.127 148.773 324.097C148.804 323.782 148.838 323.468 148.871 323.154C149.002 323.203 150.562 323.784 151.329 323.73C152.011 323.682 152.866 323.432 153.261 322.825C153.648 322.232 153.51 321.405 152.854 321.067C151.943 320.597 150.31 321.463 149.661 322.109C149.612 322.158 149.019 322.9 148.877 323.097C148.95 322.404 149.029 321.715 149.135 321.039C149.279 320.106 149.473 319.198 149.726 318.332C149.786 318.355 151.412 318.968 152.198 318.913C152.88 318.865 153.735 318.615 154.13 318.008C154.516 317.415 154.379 316.588 153.722 316.25C152.811 315.78 151.179 316.647 150.53 317.292C150.479 317.343 149.841 318.142 149.735 318.295C149.751 318.244 149.76 318.189 149.776 318.138C150.057 317.217 150.446 316.361 150.848 315.577C151.081 315.121 151.33 314.698 151.581 314.291C151.872 314.436 153.209 315.086 153.921 315.114C154.604 315.142 155.482 314.986 155.941 314.427C156.39 313.88 156.344 313.044 155.729 312.635C154.875 312.068 153.157 312.75 152.441 313.32C152.402 313.351 152.042 313.71 151.783 313.975C151.899 313.794 152.015 313.605 152.13 313.433C152.558 312.788 152.991 312.222 153.378 311.725C153.6 311.444 153.807 311.194 154.003 310.963C154.362 310.957 155.813 310.912 156.447 310.615C157.066 310.324 157.773 309.783 157.923 309.074C158.069 308.381 157.643 307.66 156.909 307.581C155.89 307.471 154.679 308.868 154.307 309.703C154.275 309.776 153.901 310.964 153.921 310.964C153.921 310.964 153.938 310.964 153.942 310.964C153.749 311.183 153.545 311.419 153.327 311.683C152.928 312.173 152.483 312.729 152.038 313.368C151.593 314.005 151.126 314.71 150.702 315.497C150.275 316.285 149.867 317.136 149.56 318.067C149.556 318.077 149.554 318.089 149.55 318.099C149.555 317.799 149.542 316.959 149.534 316.895C149.416 315.987 148.656 314.302 147.648 314.116C146.922 313.982 146.307 314.55 146.249 315.257C146.19 315.979 146.713 316.7 147.223 317.155C147.798 317.669 149.394 318.166 149.521 318.205C149.236 319.095 149.017 320.03 148.847 320.989C148.749 321.537 148.667 322.092 148.593 322.65C148.589 322.391 148.584 322.158 148.579 322.126C148.462 321.218 147.701 319.533 146.693 319.347C145.967 319.212 145.352 319.781 145.295 320.487C145.235 321.208 145.758 321.93 146.268 322.385C146.785 322.847 148.137 323.299 148.496 323.413C148.47 323.627 148.442 323.841 148.416 324.056C148.293 325.084 148.175 326.111 148.028 327.115C147.976 327.469 147.913 327.815 147.85 328.162C147.847 327.932 147.842 327.737 147.838 327.708C147.72 326.8 146.96 325.115 145.952 324.929C145.226 324.795 144.61 325.363 144.552 326.07C144.493 326.791 145.016 327.513 145.526 327.968C146.02 328.409 147.264 328.837 147.691 328.975C147.616 329.329 147.542 329.683 147.453 330.022C147.387 330.252 147.341 330.477 147.261 330.705C147.188 330.932 147.116 331.157 147.044 331.379C146.89 331.802 146.734 332.239 146.573 332.649C146.464 332.934 146.354 333.204 146.245 333.476C146.3 333.124 146.394 332.434 146.396 332.375C146.41 331.768 146.194 330.779 145.764 330.084C145.767 329.995 145.761 329.905 145.747 329.817C145.634 329.117 144.977 328.598 144.264 328.788C143.274 329.051 142.645 330.79 142.599 331.704C142.596 331.758 142.631 332.346 142.659 332.717C142.609 332.501 142.564 332.291 142.51 332.071C142.406 331.632 142.289 331.199 142.166 330.731C142.098 330.508 142.03 330.282 141.961 330.053C141.897 329.826 141.801 329.593 141.722 329.361C141.526 328.825 141.301 328.292 141.063 327.76C141.447 327.668 142.803 327.323 143.348 326.905C143.89 326.489 144.465 325.808 144.46 325.084C144.455 324.375 143.884 323.763 143.15 323.843C142.131 323.954 141.247 325.576 141.062 326.472C141.051 326.529 140.99 327.187 140.963 327.548C140.818 327.229 140.674 326.911 140.516 326.593C140.061 325.676 139.571 324.762 139.087 323.848C138.939 323.568 138.794 323.288 138.649 323.007C138.785 322.976 140.407 322.599 141.017 322.132C141.56 321.716 142.135 321.035 142.13 320.311C142.124 319.603 141.554 318.99 140.82 319.07C139.801 319.18 138.916 320.803 138.731 321.699C138.717 321.767 138.632 322.714 138.622 322.956C138.301 322.338 137.987 321.719 137.702 321.097C137.308 320.239 136.969 319.375 136.702 318.514C136.765 318.499 138.459 318.114 139.084 317.635C139.627 317.219 140.202 316.538 140.197 315.814C140.191 315.106 139.621 314.493 138.887 314.573C137.868 314.684 136.984 316.306 136.799 317.202C136.784 317.273 136.693 318.292 136.689 318.478C136.674 318.426 136.651 318.375 136.636 318.324C136.363 317.4 136.214 316.472 136.117 315.596C136.06 315.087 136.033 314.598 136.019 314.12C136.341 314.081 137.815 313.885 138.425 313.515C139.01 313.161 139.656 312.548 139.73 311.828C139.803 311.123 139.303 310.451 138.565 310.45C137.54 310.448 136.483 311.964 136.201 312.835C136.185 312.882 136.082 313.381 136.013 313.745C136.009 313.53 136.002 313.308 136.003 313.101C136.005 312.327 136.053 311.617 136.102 310.989C136.133 310.631 136.167 310.309 136.203 310.008C136.5 309.804 137.684 308.968 138.049 308.37C138.405 307.786 138.696 306.944 138.43 306.271C138.17 305.612 137.416 305.246 136.761 305.585C135.851 306.056 135.611 307.889 135.761 308.792C135.774 308.869 136.118 310.066 136.134 310.056C136.134 310.056 136.149 310.046 136.152 310.043C136.112 310.332 136.072 310.642 136.036 310.982C135.973 311.61 135.908 312.321 135.891 313.099C135.871 313.877 135.87 314.722 135.951 315.612C136.03 316.505 136.158 317.439 136.416 318.385C136.419 318.395 136.423 318.406 136.426 318.417C136.265 318.164 135.791 317.47 135.748 317.422C135.149 316.73 133.585 315.744 132.642 316.145C131.963 316.434 131.763 317.248 132.105 317.868C132.455 318.503 133.289 318.816 133.965 318.915Z" fill="#111827"/>
<path d="M151.54 314.1C151.556 314.109 151.867 312.904 151.878 312.826C152.004 311.92 151.716 310.094 150.793 309.649C150.128 309.327 149.385 309.714 149.143 310.38C148.895 311.06 149.208 311.894 149.581 312.467C150.016 313.141 151.539 314.099 151.54 314.1Z" fill="#111827"/>
<path d="M165.995 43.1235C161.515 45.7424 159.824 50.8143 159.013 53.246C157.893 56.6078 153.97 51.0045 146.126 53.8061C138.282 56.6078 137.161 62.7712 135.481 64.4518C133.8 66.1323 122.594 70.6152 122.594 70.6152H235.039" stroke="#111827" stroke-miterlimit="10" stroke-linecap="round" stroke-linejoin="round"/>
<path d="M240.643 70.616H254.266C254.266 70.616 256.508 58.2891 251.464 52.1256C246.421 45.9621 235.216 54.9272 231.854 45.9621C231.854 45.9621 221.768 31.3945 209.441 30.2734C197.114 29.153 192.072 38.6783 188.149 43.7207C184.227 48.7638 181.986 41.4792 172.461 41.4792" stroke="#111827" stroke-miterlimit="10" stroke-linecap="round" stroke-linejoin="round"/>
<path d="M186.828 60.609C184.543 62.7365 184.227 65.5729 184.227 65.5729" stroke="#111827" stroke-miterlimit="10" stroke-linecap="round" stroke-linejoin="round"/>
<path d="M229.612 51.0052C229.612 51.0052 221.768 43.1612 212.803 43.7214C203.838 44.2816 207.2 54.9272 203.278 58.2891C199.356 61.6509 194.874 57.1687 189.831 58.8492" stroke="#111827" stroke-miterlimit="10" stroke-linecap="round" stroke-linejoin="round"/>
<path d="M53.6034 78.1181C50.6767 79.829 49.5726 83.1427 49.0427 84.7315C48.3109 86.9278 45.7483 83.267 40.623 85.0978C35.4978 86.9278 34.7659 90.9549 33.6678 92.053C32.5696 93.1512 25.248 96.0801 25.248 96.0801H98.7123" stroke="#111827" stroke-miterlimit="10" stroke-linecap="round" stroke-linejoin="round"/>
<path d="M102.373 96.0794H111.274C111.274 96.0794 112.738 88.026 109.444 83.9989C106.149 79.9718 98.8277 85.8289 96.6314 79.9725C96.6314 79.9725 90.0424 70.4547 81.989 69.7228C73.9356 68.9909 70.6411 75.2136 68.0785 78.5081C65.5159 81.8026 64.0521 77.0436 57.8287 77.0436" stroke="#111827" stroke-miterlimit="10" stroke-linecap="round" stroke-linejoin="round"/>
<path d="M67.2142 89.5422C65.7216 90.9319 65.5151 92.7856 65.5151 92.7856" stroke="#111827" stroke-miterlimit="10" stroke-linecap="round" stroke-linejoin="round"/>
<path d="M95.1669 83.2678C95.1669 83.2678 90.0417 78.1425 84.1853 78.5088C78.3282 78.8751 80.5245 85.8304 77.9619 88.0267C75.3993 90.223 72.4711 87.2948 69.1766 88.393" stroke="#111827" stroke-miterlimit="10" stroke-linecap="round" stroke-linejoin="round"/>
<path d="M203.189 107.61C201.148 108.803 200.378 111.114 200.009 112.222C199.498 113.754 197.711 111.201 194.137 112.477C190.564 113.754 190.053 116.561 189.288 117.327C188.522 118.093 183.416 120.135 183.416 120.135H234.647" stroke="#111827" stroke-miterlimit="10" stroke-linecap="round" stroke-linejoin="round"/>
<path d="M237.198 120.135H243.404C243.404 120.135 244.426 114.519 242.128 111.711C239.83 108.903 234.725 112.988 233.193 108.903C233.193 108.903 228.599 102.266 222.983 101.755C217.367 101.245 215.069 105.584 213.282 107.882C211.495 110.179 210.474 106.86 206.134 106.86" stroke="#111827" stroke-miterlimit="10" stroke-linecap="round" stroke-linejoin="round"/>
<path d="M212.68 115.576C211.639 116.546 211.496 117.838 211.496 117.838" stroke="#111827" stroke-miterlimit="10" stroke-linecap="round" stroke-linejoin="round"/>
<path d="M232.173 111.201C232.173 111.201 228.599 107.627 224.515 107.882C220.43 108.137 221.962 112.987 220.175 114.519C218.388 116.051 216.346 114.008 214.049 114.774" stroke="#111827" stroke-miterlimit="10" stroke-linecap="round" stroke-linejoin="round"/>
<path d="M76.6596 268.549V237.687H39.1283V219.386L71.8518 142.928H96.8209V220.627H109.693V237.687H96.8209V268.549H76.6596ZM57.1184 220.627H76.6596V166.037L57.1184 220.627Z" fill="#111827" stroke="#111827" stroke-miterlimit="10" stroke-linecap="round" stroke-linejoin="round"/>
<path d="M153.737 270.41C146.395 270.41 140.323 268.859 135.515 265.758C130.707 262.656 127.087 258.367 124.659 252.885C122.228 247.406 121.015 241.099 121.015 233.965V178.288C121.015 170.948 122.178 164.512 124.504 158.98C126.83 153.45 130.397 149.132 135.205 146.03C140.013 142.928 146.189 141.378 153.737 141.378C161.283 141.378 167.463 142.928 172.27 146.03C177.078 149.132 180.645 153.45 182.971 158.98C185.298 164.512 186.461 170.948 186.461 178.288V233.964C186.461 241.098 185.244 247.406 182.816 252.885C180.385 258.367 176.768 262.655 171.96 265.757C167.153 268.859 161.078 270.41 153.737 270.41ZM153.737 251.955C156.941 251.955 159.321 250.973 160.872 249.009C162.422 247.045 163.454 244.665 163.973 241.874C164.49 239.083 164.749 236.344 164.749 233.654V178.598C164.749 175.705 164.516 172.836 164.051 169.991C163.585 167.149 162.577 164.745 161.026 162.779C159.475 160.817 157.045 159.833 153.737 159.833C150.427 159.833 147.999 160.817 146.448 162.779C144.898 164.745 143.889 167.149 143.424 169.991C142.958 172.836 142.726 175.705 142.726 178.598V233.654C142.726 236.344 143.01 239.083 143.579 241.874C144.147 244.665 145.208 247.045 146.758 249.009C148.309 250.972 150.636 251.955 153.737 251.955Z" fill="#111827" stroke="#111827" stroke-miterlimit="10" stroke-linecap="round" stroke-linejoin="round"/>
<path d="M237.64 268.549V237.687H200.109V219.386L232.832 142.928H257.801V220.627H270.673V237.687H257.801V268.549H237.64ZM218.098 220.627H237.64V166.037L218.098 220.627Z" fill="#111827" stroke="#111827" stroke-miterlimit="10" stroke-linecap="round" stroke-linejoin="round"/>
<path d="M86.0111 268.549V237.687H48.4797V219.386L81.2033 142.928H106.172V220.627H119.045V237.687H106.172V268.549H86.0111ZM66.4699 220.627H86.0111V166.037L66.4699 220.627Z" fill="white" stroke="#111827" stroke-miterlimit="10" stroke-linecap="round" stroke-linejoin="round"/>
<path d="M163.089 270.41C155.746 270.41 149.674 268.859 144.866 265.758C140.058 262.656 136.438 258.367 134.01 252.885C131.58 247.406 130.366 241.099 130.366 233.965V178.288C130.366 170.948 131.529 164.512 133.856 158.98C136.182 153.45 139.749 149.132 144.557 146.03C149.365 142.928 155.542 141.378 163.09 141.378C170.636 141.378 176.815 142.928 181.623 146.03C186.431 149.132 189.998 153.45 192.324 158.98C194.651 164.512 195.814 170.948 195.814 178.288V233.964C195.814 241.098 194.597 247.406 192.169 252.885C189.739 258.367 186.121 262.655 181.313 265.757C176.504 268.859 170.429 270.41 163.089 270.41ZM163.089 251.955C166.292 251.955 168.672 250.973 170.223 249.009C171.774 247.045 172.806 244.665 173.324 241.874C173.841 239.083 174.1 236.344 174.1 233.654V178.598C174.1 175.705 173.868 172.836 173.402 169.991C172.937 167.149 171.929 164.745 170.378 162.779C168.827 160.817 166.397 159.833 163.089 159.833C159.779 159.833 157.351 160.817 155.8 162.779C154.249 164.745 153.241 167.149 152.775 169.991C152.31 172.836 152.078 175.705 152.078 178.598V233.654C152.078 236.344 152.361 239.083 152.931 241.874C153.498 244.665 154.56 247.045 156.11 249.009C157.661 250.972 159.987 251.955 163.089 251.955Z" fill="white" stroke="#111827" stroke-miterlimit="10" stroke-linecap="round" stroke-linejoin="round"/>
<path d="M246.991 268.549V237.687H209.459V219.386L242.183 142.928H267.151V220.627H280.024V237.687H267.151V268.549H246.991ZM227.449 220.627H246.991V166.037L227.449 220.627Z" fill="white" stroke="#111827" stroke-miterlimit="10" stroke-linecap="round" stroke-linejoin="round"/>
<path d="M80.3049 136.857C78.5622 136.857 77.1747 136.533 76.1409 135.885C75.1079 135.236 74.3679 134.304 73.9224 133.089C73.4769 131.873 73.2542 130.435 73.2542 128.773V119.565C73.2542 117.903 73.4769 116.48 73.9224 115.295C74.3679 114.109 75.1079 113.203 76.1409 112.575C77.1747 111.947 78.5614 111.633 80.3049 111.633C82.0875 111.633 83.4906 111.947 84.514 112.575C85.5367 113.203 86.2767 114.109 86.7325 115.295C87.1884 116.48 87.4163 117.904 87.4163 119.565V128.804C87.4163 130.446 87.1884 131.869 86.7325 133.074C86.2767 134.28 85.5367 135.212 84.514 135.871C83.4906 136.528 82.0875 136.857 80.3049 136.857ZM80.3049 133.544C81.0545 133.544 81.6065 133.382 81.9617 133.058C82.3162 132.734 82.5545 132.288 82.6758 131.721C82.7972 131.154 82.8579 130.535 82.8579 129.867V118.53C82.8579 117.842 82.7972 117.223 82.6758 116.677C82.5545 116.13 82.3162 115.7 81.9617 115.385C81.6073 115.071 81.0545 114.914 80.3049 114.914C79.5952 114.914 79.0587 115.071 78.6939 115.385C78.3291 115.7 78.0864 116.13 77.9643 116.677C77.8422 117.223 77.7822 117.842 77.7822 118.53V129.867C77.7822 130.536 77.8377 131.154 77.9495 131.721C78.0605 132.288 78.2987 132.734 78.6636 133.058C79.0284 133.382 79.5752 133.544 80.3049 133.544Z" fill="#111827"/>
<path d="M97.4151 136.857C95.6724 136.857 94.2849 136.533 93.2511 135.885C92.2181 135.236 91.4781 134.304 91.0326 133.089C90.5871 131.873 90.3644 130.435 90.3644 128.773V119.565C90.3644 117.903 90.5871 116.48 91.0326 115.295C91.4781 114.109 92.2181 113.203 93.2511 112.575C94.2842 111.947 95.6717 111.633 97.4151 111.633C99.1978 111.633 100.601 111.947 101.625 112.575C102.648 113.203 103.388 114.109 103.843 115.295C104.299 116.48 104.527 117.904 104.527 119.565V128.804C104.527 130.446 104.299 131.869 103.843 133.074C103.388 134.28 102.648 135.212 101.625 135.871C100.601 136.528 99.1978 136.857 97.4151 136.857ZM97.4151 133.544C98.1647 133.544 98.7168 133.382 99.072 133.058C99.4264 132.734 99.6647 132.288 99.7861 131.721C99.9074 131.154 99.9681 130.535 99.9681 129.867V118.53C99.9681 117.842 99.9074 117.223 99.7861 116.677C99.6647 116.13 99.4264 115.7 99.072 115.385C98.7168 115.071 98.1647 114.914 97.4151 114.914C96.7054 114.914 96.1689 115.071 95.8041 115.385C95.4393 115.7 95.1966 116.13 95.0745 116.677C94.9531 117.223 94.8917 117.842 94.8917 118.53V129.867C94.8917 130.536 94.9472 131.154 95.0589 131.721C95.1699 132.288 95.4082 132.734 95.773 133.058C96.1386 133.382 96.6855 133.544 97.4151 133.544Z" fill="#111827"/>
<path d="M107.839 136.523V111.905H115.073C116.552 111.905 117.753 112.179 118.675 112.726C119.597 113.273 120.275 114.068 120.711 115.111C121.147 116.156 121.364 117.417 121.364 118.895C121.364 120.496 121.091 121.788 120.544 122.77C119.997 123.753 119.232 124.467 118.249 124.912C117.266 125.358 116.107 125.581 114.77 125.581H112.338V136.522H107.839V136.523ZM112.337 122.421H114.039C114.849 122.421 115.483 122.305 115.939 122.072C116.395 121.84 116.708 121.464 116.881 120.947C117.052 120.431 117.139 119.736 117.139 118.865C117.139 117.974 117.073 117.25 116.941 116.693C116.81 116.136 116.526 115.726 116.09 115.462C115.655 115.199 114.971 115.067 114.039 115.067H112.337V122.421Z" fill="#111827"/>
<path d="M129.934 136.857C128.455 136.857 127.219 136.568 126.226 135.991C125.233 135.413 124.484 134.568 123.977 133.453C123.471 132.339 123.187 130.971 123.126 129.351L126.986 128.591C127.027 129.543 127.143 130.384 127.336 131.113C127.528 131.843 127.822 132.405 128.217 132.8C128.612 133.195 129.133 133.392 129.782 133.392C130.512 133.392 131.028 133.175 131.332 132.739C131.636 132.303 131.788 131.751 131.788 131.083C131.788 130.009 131.545 129.128 131.059 128.439C130.572 127.75 129.924 127.061 129.114 126.372L126.014 123.637C125.142 122.888 124.449 122.052 123.932 121.13C123.415 120.208 123.157 119.068 123.157 117.711C123.157 115.766 123.724 114.267 124.859 113.213C125.993 112.16 127.544 111.633 129.509 111.633C130.664 111.633 131.626 111.81 132.396 112.165C133.166 112.52 133.78 113.011 134.235 113.639C134.691 114.267 135.03 114.981 135.254 115.781C135.476 116.582 135.618 117.428 135.679 118.319L131.85 118.988C131.809 118.218 131.723 117.529 131.591 116.921C131.46 116.312 131.227 115.837 130.892 115.492C130.558 115.148 130.066 114.975 129.418 114.975C128.75 114.975 128.238 115.194 127.883 115.629C127.529 116.065 127.351 116.607 127.351 117.254C127.351 118.085 127.523 118.769 127.868 119.306C128.212 119.843 128.708 120.395 129.357 120.963L132.426 123.667C133.439 124.518 134.306 125.517 135.025 126.661C135.744 127.806 136.104 129.189 136.104 130.81C136.104 131.985 135.846 133.028 135.329 133.94C134.813 134.852 134.093 135.566 133.171 136.083C132.249 136.599 131.17 136.857 129.934 136.857Z" fill="#111827"/>
<path d="M138.11 136.523V132.511H142.122V136.523H138.11ZM139.386 130.748L138.14 111.935H142.273L140.815 130.748H139.386Z" fill="#111827"/>
<path d="M248.781 283.79V289.081H251.537V285.977C251.537 284.617 252.64 283.513 254.001 283.513H263.047C264.408 283.513 265.511 284.617 265.511 285.977V289.081H268.268V283.79C268.268 282.429 267.164 281.326 265.803 281.326H251.245C249.884 281.326 248.781 282.429 248.781 283.79Z" fill="#111827" stroke="#111827" stroke-miterlimit="10" stroke-linecap="round" stroke-linejoin="round"/>
<path d="M277.838 287.639H225.639C223.717 287.639 222.16 289.197 222.16 291.119V333.074C222.16 334.311 223.162 335.314 224.4 335.314H279.078C280.316 335.314 281.318 334.311 281.318 333.074V291.119C281.318 289.198 279.76 287.639 277.838 287.639Z" fill="#111827" stroke="#111827" stroke-miterlimit="10" stroke-linecap="round" stroke-linejoin="round"/>
<path d="M285.072 287.639H232.874C230.952 287.639 229.394 289.197 229.394 291.119V333.074C229.394 334.311 230.397 335.314 231.634 335.314H286.313C287.55 335.314 288.553 334.311 288.553 333.074V291.119C288.552 289.198 286.994 287.639 285.072 287.639Z" fill="#9CA3AF" stroke="#111827" stroke-miterlimit="10" stroke-linecap="round" stroke-linejoin="round"/>
<path d="M303.401 193.998C303.401 193.998 288.523 238.692 287.237 246.783C285.952 254.873 286.778 264.919 287.551 270.001C288.325 275.082 296.246 318.974 296.246 318.974C296.246 318.974 294.285 318.312 294.142 319.731C293.998 321.15 294.493 327.152 294.493 327.152C294.493 327.152 292.438 330.03 287.027 333.164C281.617 336.297 278.987 337.243 280.602 338.267C282.218 339.29 289.125 339.659 291.946 339.239C294.766 338.819 302.351 337.934 303.584 337.728C304.818 337.522 308.551 338.319 309.739 336.169C310.927 334.018 310.067 327.494 310.366 325.187C310.666 322.88 308.988 319.206 308.976 318.675C308.963 318.145 307.481 268.536 307.481 268.536L308.419 256.216C308.419 256.216 308.143 267.95 309.492 269.258C310.842 270.566 324.915 319.539 324.915 319.539L323.551 321.694L325.254 326.43L323.91 329.469C323.91 329.469 317.505 335.456 314.887 336.932C312.268 338.409 309.625 338.825 311.068 340.029C312.511 341.233 326.646 340.548 326.646 340.548L341.434 337.548C341.434 337.548 343.674 335.019 343.27 332.906C342.867 330.793 340.921 323.233 340.921 323.233C340.921 323.233 341.396 313.316 340.857 312.975C340.319 312.634 337.58 308.983 337.37 307.573C337.16 306.162 335.622 278.462 333.997 273.804C332.371 269.148 330.352 261.862 330.352 261.862C330.352 261.862 331.499 260.703 331.573 259.454C331.648 258.206 331.283 255.93 331.283 255.93C331.283 255.93 346.724 215.748 347.431 213.449C348.139 211.149 351.322 198.771 351.322 193.82C351.322 188.869 350.968 185.155 350.968 185.155C350.968 185.155 338.943 190.637 326.742 191.168C314.54 191.698 303.753 190.991 303.753 190.991L303.401 193.998Z" fill="#111827" stroke="#111827" stroke-miterlimit="10" stroke-linecap="round" stroke-linejoin="round"/>
<path d="M340.359 195.59C340.359 195.59 340.359 207.615 346.372 209.914" stroke="white" stroke-miterlimit="10" stroke-linecap="round" stroke-linejoin="round"/>
<path d="M349.025 192.054C349.025 192.054 349.378 200.188 347.787 207.438" stroke="white" stroke-miterlimit="10" stroke-linecap="round" stroke-linejoin="round"/>
<path d="M337.493 228.911C335.845 232.418 334.584 235.14 334.524 235.378" stroke="white" stroke-miterlimit="10" stroke-linecap="round" stroke-linejoin="round"/>
<path d="M345.488 212.036C345.488 212.036 341.63 220.13 338.491 226.789" stroke="white" stroke-miterlimit="10" stroke-linecap="round" stroke-linejoin="round"/>
<path d="M309.959 245.158L316.487 217.164L309.59 211.152" stroke="white" stroke-miterlimit="10" stroke-linecap="round" stroke-linejoin="round"/>
<path d="M308.542 251.239L309.219 248.332" stroke="white" stroke-miterlimit="10" stroke-linecap="round" stroke-linejoin="round"/>
<path d="M274.593 129.942L256.884 137.653C256.884 137.653 267.452 115.661 267.881 114.375C268.309 113.09 262.025 102.236 262.168 101.808C262.311 101.379 267.738 94.8103 267.881 93.3821C268.024 91.9539 271.023 86.9552 268.738 86.6703C266.452 86.3846 254.314 97.6667 254.028 100.523C253.742 103.379 259.455 113.091 260.026 113.947C260.598 114.804 230.607 146.937 230.036 152.078C229.464 157.22 231.892 160.504 236.177 161.075C240.461 161.646 274.165 150.079 279.306 148.65C284.448 147.222 286.161 149.507 286.161 149.507C286.161 149.507 302.299 169.072 303.441 171.5C304.584 173.928 304.013 182.925 302.727 185.639C301.442 188.352 300.014 193.065 300.728 193.779C301.442 194.493 301.967 195.373 304.108 195.944C306.25 196.515 321.15 198.349 329.576 197.063C338.002 195.778 347.999 191.351 350.283 189.638C352.569 187.924 352.854 185.924 352.854 183.353C352.854 180.783 351.14 178.498 349.998 175.927C348.855 173.356 341.286 149.792 338.144 142.223C335.002 134.654 336.002 128.941 324.149 122.23C312.296 115.518 298.392 116.925 298.392 116.925L274.593 129.942Z" fill="#D8B4FE" stroke="#111827" stroke-miterlimit="10" stroke-linecap="round" stroke-linejoin="round"/>
<path d="M256.175 148.424L256.027 150.649" stroke="#111827" stroke-miterlimit="10" stroke-linecap="round" stroke-linejoin="round"/>
<path d="M252.315 151.935L256.884 137.653L256.285 146.744" stroke="#111827" stroke-miterlimit="10" stroke-linecap="round" stroke-linejoin="round"/>
<path d="M251.886 124.943C251.886 124.943 252.6 130.37 259.598 130.656" stroke="#111827" stroke-miterlimit="10" stroke-linecap="round" stroke-linejoin="round"/>
<path d="M284.59 148.221C284.59 148.221 279.448 144.794 274.165 143.08L284.59 148.221Z" fill="white"/>
<path d="M284.59 148.221C284.59 148.221 279.448 144.794 274.165 143.08" stroke="#111827" stroke-miterlimit="10" stroke-linecap="round" stroke-linejoin="round"/>
<path d="M272.606 144.921C272.036 144.825 271.459 144.734 270.88 144.652" stroke="#111827" stroke-miterlimit="10" stroke-linecap="round" stroke-linejoin="round"/>
<path d="M282.733 147.222C282.733 147.222 279.093 146.156 274.613 145.285" stroke="#111827" stroke-miterlimit="10" stroke-linecap="round" stroke-linejoin="round"/>
<path d="M308.914 176.392C309.417 176.806 309.774 177.069 309.868 177.069" stroke="#111827" stroke-miterlimit="10" stroke-linecap="round" stroke-linejoin="round"/>
<path d="M303.441 171.5C303.441 171.5 305.96 173.839 307.85 175.485" stroke="#111827" stroke-miterlimit="10" stroke-linecap="round" stroke-linejoin="round"/>
<path d="M334.288 196.207L346.999 188.209" stroke="#111827" stroke-miterlimit="10" stroke-linecap="round" stroke-linejoin="round"/>
<path d="M341.528 165.028C340.095 170.833 337.315 180.723 334.003 185.496" stroke="#111827" stroke-miterlimit="10" stroke-linecap="round" stroke-linejoin="round"/>
<path d="M342.572 160.503C342.572 160.503 342.391 161.379 342.058 162.819" stroke="#111827" stroke-miterlimit="10" stroke-linecap="round" stroke-linejoin="round"/>
<path d="M342.572 168.072C342.572 168.072 339.858 179.926 337.716 183.211" stroke="#111827" stroke-miterlimit="10" stroke-linecap="round" stroke-linejoin="round"/>
<path d="M264.325 122.069C266.194 118.121 267.724 114.847 267.881 114.374C268.309 113.089 262.025 102.235 262.168 101.807C262.311 101.379 267.738 94.8095 267.881 93.3813C268.024 91.9531 271.023 86.9544 268.738 86.6695C266.453 86.3839 254.314 97.6659 254.028 100.522C253.742 103.379 259.455 113.09 260.026 113.947C260.147 114.128 258.9 115.709 256.858 118.133C257.652 120.071 259.595 122.528 264.325 122.069Z" fill="white" stroke="#111827" stroke-miterlimit="10" stroke-linecap="round" stroke-linejoin="round"/>
<path d="M261.838 94.1554C261.838 94.1554 258.259 101.091 258.39 101.618" stroke="#111827" stroke-miterlimit="10" stroke-linecap="round" stroke-linejoin="round"/>
<path d="M259.18 94.242C259.18 94.242 255.096 100.038 255.36 100.96" stroke="#111827" stroke-miterlimit="10" stroke-linecap="round" stroke-linejoin="round"/>
<path d="M289.874 146.079L295.586 157.647L298.3 157.79L300.585 144.794L298.728 141.795L297.443 149.935L294.015 149.792L290.017 143.795L289.874 146.079Z" fill="#9CA3AF" stroke="#111827" stroke-miterlimit="10" stroke-linecap="round" stroke-linejoin="round"/>
<path d="M295.586 157.647L290.853 192.123L296.327 203.638L302.192 191.673L298.3 157.79L295.586 157.647Z" fill="#9CA3AF" stroke="#111827" stroke-miterlimit="10" stroke-linecap="round" stroke-linejoin="round"/>
<path d="M294.738 155.927L299.118 153.139L300.475 145.422L297.897 147.063L297.443 149.935L294.015 149.792L293.895 149.611L292.162 150.714L294.738 155.927Z" fill="#111827"/>
<path d="M298.3 157.79L298.307 157.751L298.25 157.787L298.3 157.79Z" fill="#111827"/>
<path d="M299.468 167.962L293.663 171.657L292.631 179.166L300.202 174.347L299.468 167.962Z" fill="#111827"/>
<path d="M299.029 164.144L298.3 157.79L298.25 157.787L295.31 159.659L294.279 167.168L299.029 164.144Z" fill="#111827"/>
<path d="M300.641 178.164L292.015 183.655L290.984 191.164L301.374 184.55L300.641 178.164Z" fill="#111827"/>
<path d="M299.837 196.477L302.192 191.673L301.813 188.367L292.028 194.596L294.53 199.857L299.837 196.477Z" fill="#111827"/>
<path d="M285.875 132.797C285.875 132.797 284.733 139.795 284.876 142.937C285.018 146.079 286.589 151.648 286.589 151.648L293.588 143.651L305.298 150.934C305.298 150.934 304.87 136.082 304.87 135.653C304.87 135.225 302.156 119.23 301.299 117.659C300.442 116.088 298.157 115.231 296.872 115.516C295.586 115.803 285.875 132.797 285.875 132.797Z" fill="#D8B4FE" stroke="#111827" stroke-miterlimit="10" stroke-linecap="round" stroke-linejoin="round"/>
<path d="M266.145 93.7861C266.145 93.7861 265.776 104.248 266.023 108.433C266.269 112.618 265.653 115.941 266.761 119.387C267.869 122.833 269.099 129.48 270.207 131.695C271.315 133.91 273.653 136.002 277.1 136.002C280.546 136.002 284.361 133.172 286.207 131.326C288.054 129.479 291.254 126.894 292.977 123.572C294.7 120.249 293.223 111.879 293.469 109.541C293.716 107.202 294.208 103.14 294.208 103.14C294.208 103.14 296.669 97.1095 294.7 94.279C292.731 91.4477 283.992 88.248 277.345 88.8636C270.699 89.4786 266.145 93.7861 266.145 93.7861Z" fill="white" stroke="#111827" stroke-miterlimit="10" stroke-linecap="round" stroke-linejoin="round"/>
<path d="M271.93 105.602L272.915 109.294C272.915 109.294 269.961 117.91 270.699 118.402C271.438 118.894 277.469 118.279 277.469 118.279" stroke="#111827" stroke-miterlimit="10" stroke-linecap="round" stroke-linejoin="round"/>
<path d="M276.73 101.786C276.73 101.786 276.607 103.14 277.1 103.386C277.592 103.633 282.392 105.478 283.131 105.232C283.869 104.986 282.884 104.002 282.269 103.755C281.654 103.51 276.484 100.678 276.73 101.786Z" fill="#111827" stroke="#111827" stroke-miterlimit="10" stroke-linecap="round" stroke-linejoin="round"/>
<path d="M271.93 103.755C271.93 103.755 267.992 105.971 267.253 106.094C266.515 106.217 267.745 104.617 267.745 104.617C267.745 104.617 270.699 101.293 271.438 101.786C272.176 102.279 271.93 103.755 271.93 103.755Z" fill="#111827" stroke="#111827" stroke-miterlimit="10" stroke-linecap="round" stroke-linejoin="round"/>
<path d="M278.207 108.679C278.207 108.679 280.3 110.894 283.131 109.171" stroke="#111827" stroke-miterlimit="10" stroke-linecap="round" stroke-linejoin="round"/>
<path d="M267.992 109.664C267.992 109.664 269.961 110.894 271.93 108.925" stroke="#111827" stroke-miterlimit="10" stroke-linecap="round" stroke-linejoin="round"/>
<path d="M293.469 109.541C293.693 107.421 294.117 103.894 294.194 103.252L291.746 101.91C291.746 101.91 292.485 111.018 291.5 116.064C290.516 121.11 288.792 122.71 286.823 123.448C284.854 124.187 283.869 123.202 283.869 123.202C283.869 123.202 279.192 118.771 275.008 118.648C271.355 118.541 268.547 122.558 267.892 123.581C268.669 126.746 269.466 130.212 270.207 131.694C271.315 133.91 273.653 136.002 277.1 136.002C280.546 136.002 284.361 133.171 286.207 131.325C288.054 129.479 291.254 126.894 292.977 123.571C294.7 120.249 293.223 111.879 293.469 109.541Z" fill="#111827" stroke="#111827" stroke-miterlimit="10" stroke-linecap="round" stroke-linejoin="round"/>
<path d="M280.915 126.894C280.915 126.894 278.33 123.202 275.869 122.587C273.407 121.971 270.823 126.772 271.684 127.633C272.546 128.494 273.776 125.295 276.115 126.28C278.453 127.264 279.807 128.864 280.915 126.894Z" fill="white" stroke="#111827" stroke-miterlimit="10" stroke-linecap="round" stroke-linejoin="round"/>
<path d="M265.776 87.263C265.776 87.263 262.084 86.1552 259.745 87.3859C257.407 88.6165 256.299 91.3241 256.299 91.3241L261.099 91.6934L263.315 92.8012C263.315 92.8012 262.33 92.8012 261.838 94.1554C261.346 95.5096 260.976 97.1095 260.976 97.1095C260.976 97.1095 262.7 96.1245 265.408 95.756C268.115 95.3867 273.408 93.7869 273.408 93.7869L274.023 97.8487C274.023 97.8487 277.1 95.8796 279.562 95.1411C282.024 94.4025 283.501 92.8027 283.501 92.8027C283.501 92.8027 289.901 95.2646 289.777 96.3717C289.654 97.4795 287.439 100.187 288.177 101.048C288.916 101.91 290.885 103.756 290.885 103.756L298.27 107.941C298.27 107.941 300.977 103.756 302.331 97.1102C303.686 90.4643 297.531 83.3255 292.362 81.3563C287.193 79.3872 283.377 80.1257 280.177 80.2486C276.978 80.3714 272.546 79.3872 272.546 79.3872L275.5 82.4641C275.5 82.4641 272.67 83.5719 271.439 83.8183C270.208 84.0647 268.115 84.6797 267.623 84.434C267.131 84.1876 265.408 83.0805 265.408 83.0805C265.408 83.0805 264.546 86.7709 265.776 87.263Z" fill="#111827" stroke="#111827" stroke-miterlimit="10" stroke-linecap="round" stroke-linejoin="round"/>
<path d="M295.438 114.71C295.438 114.71 297.285 113.725 298.269 112.248C299.254 110.771 302.084 105.11 298.761 103.51C296.243 102.298 294.575 104.474 293.914 105.601C293.764 106.883 293.588 108.411 293.468 109.541C293.222 111.879 294.699 120.249 292.976 123.572C291.254 126.895 288.053 129.48 286.207 131.326C285.499 132.034 284.498 132.887 283.342 133.67L286.453 134.525C286.453 134.525 287.438 137.602 290.146 141.048C292.853 144.495 295.192 146.71 295.192 146.71C295.192 146.71 295.93 142.279 297.9 132.433C299.869 122.586 298.392 116.924 298.392 116.924L295.438 114.71Z" fill="white" stroke="#111827" stroke-miterlimit="10" stroke-linecap="round" stroke-linejoin="round"/>
<path d="M286.453 134.525L290.761 135.756L288.669 138.833C288.669 138.833 286.946 136.002 286.453 134.525Z" fill="#111827" stroke="#111827" stroke-miterlimit="10" stroke-linecap="round" stroke-linejoin="round"/>
<path d="M312.438 131.227L316.009 220.484L324.006 221.056C324.006 221.056 330.861 192.208 332.86 182.354C334.86 172.5 335.574 166.216 335.431 158.361C335.288 150.507 333.431 134.226 333.431 134.226C333.431 134.226 329.29 127.229 325.72 124.801" fill="#D8B4FE"/>
<path d="M312.438 131.227L316.009 220.484L324.006 221.056C324.006 221.056 330.861 192.208 332.86 182.354C334.86 172.5 335.574 166.216 335.431 158.361C335.288 150.507 333.431 134.226 333.431 134.226C333.431 134.226 329.29 127.229 325.72 124.801" stroke="#111827" stroke-miterlimit="10" stroke-linecap="round" stroke-linejoin="round"/>
<path d="M328.681 147.918C329.42 145.585 329.861 144.08 329.861 144.08" stroke="#111827" stroke-miterlimit="10" stroke-linecap="round" stroke-linejoin="round"/>
<path d="M314.581 182.925C314.581 182.925 318.008 174.928 322.007 166.073C324.184 161.25 326.32 155.156 327.813 150.607" stroke="#111827" stroke-miterlimit="10" stroke-linecap="round" stroke-linejoin="round"/>
<path d="M324.079 170.834C323.854 171.448 323.638 171.966 323.435 172.357" stroke="#111827" stroke-miterlimit="10" stroke-linecap="round" stroke-linejoin="round"/>
<path d="M328.291 154.505C328.291 154.505 326.529 162.895 324.87 168.422" stroke="#111827" stroke-miterlimit="10" stroke-linecap="round" stroke-linejoin="round"/>
<path d="M316.009 212.629L325.577 213.058" stroke="#111827" stroke-miterlimit="10" stroke-linecap="round" stroke-linejoin="round"/>
<path d="M316.009 220.484C316.009 220.484 314.892 234.263 314.892 235.454C314.892 236.645 315.845 245.339 316.083 246.054C316.321 246.769 322.395 251.294 322.991 251.294C323.586 251.294 326.921 251.652 327.517 250.699C328.112 249.746 328.351 249.151 327.517 248.912C326.683 248.674 324.42 248.793 324.42 248.793L323.11 248.198C323.11 248.198 327.993 247.721 328.351 247.602C328.708 247.483 330.494 246.292 330.852 245.458C331.209 244.624 330.614 243.672 330.614 243.672C330.614 243.672 332.4 242.004 332.519 241.409C332.638 240.813 332.757 239.146 331.923 239.384C331.089 239.622 329.899 240.932 329.899 240.932H326.921C326.921 240.932 330.018 238.908 330.374 238.312C330.732 237.716 331.208 235.215 331.089 234.501C330.97 233.786 329.422 234.62 329.065 235.335C328.707 236.05 328.112 237.955 328.112 237.955L324.539 238.432L323.348 236.884C323.348 236.884 325.73 229.499 325.73 227.951C325.73 226.403 324.006 221.056 324.006 221.056L316.009 220.484Z" fill="white" stroke="#111827" stroke-miterlimit="10" stroke-linecap="round" stroke-linejoin="round"/>
<path d="M320.371 238.551C320.371 238.551 322.992 240.814 323.706 241.052C324.421 241.29 326.922 240.933 326.922 240.933" stroke="#111827" stroke-miterlimit="10" stroke-linecap="round" stroke-linejoin="round"/>
<path d="M318.822 241.171C318.822 241.171 322.872 244.744 323.944 244.744C325.015 244.744 330.614 243.672 330.614 243.672" stroke="#111827" stroke-miterlimit="10" stroke-linecap="round" stroke-linejoin="round"/>
<path d="M317.989 244.267C317.989 244.267 320.371 247.126 321.086 247.364C321.801 247.601 323.111 248.197 323.111 248.197" stroke="#111827" stroke-miterlimit="10" stroke-linecap="round" stroke-linejoin="round"/>
</svg>
